<svg xmlns="http://www.w3.org/2000/svg" width="1450.132" height="1125.977" viewBox="0 0 1450.132 1125.977">
  <g id="Group_13" data-name="Group 13" transform="matrix(0.966, -0.259, 0.259, 0.966, -621.727, -895.368)" opacity="0.18">
    <g id="Ellipse_181" data-name="Ellipse 181" transform="translate(283 1346)" fill="none" stroke="#fff" stroke-width="1">
      <ellipse cx="166.545" cy="411.24" rx="166.545" ry="411.24" stroke="none"/>
      <ellipse cx="166.545" cy="411.24" rx="166.045" ry="410.74" fill="none"/>
    </g>
    <g id="Ellipse_182" data-name="Ellipse 182" transform="translate(310.08 1346)" fill="none" stroke="#fff" stroke-width="1">
      <ellipse cx="166.545" cy="411.24" rx="166.545" ry="411.24" stroke="none"/>
      <ellipse cx="166.545" cy="411.24" rx="166.045" ry="410.74" fill="none"/>
    </g>
    <g id="Ellipse_183" data-name="Ellipse 183" transform="translate(337.161 1346)" fill="none" stroke="#fff" stroke-width="1">
      <ellipse cx="166.545" cy="411.24" rx="166.545" ry="411.24" stroke="none"/>
      <ellipse cx="166.545" cy="411.24" rx="166.045" ry="410.74" fill="none"/>
    </g>
    <g id="Ellipse_184" data-name="Ellipse 184" transform="translate(364.241 1346)" fill="none" stroke="#fff" stroke-width="1">
      <ellipse cx="166.545" cy="411.24" rx="166.545" ry="411.24" stroke="none"/>
      <ellipse cx="166.545" cy="411.24" rx="166.045" ry="410.74" fill="none"/>
    </g>
    <g id="Ellipse_185" data-name="Ellipse 185" transform="translate(391.322 1346)" fill="none" stroke="#fff" stroke-width="1">
      <ellipse cx="166.545" cy="411.24" rx="166.545" ry="411.24" stroke="none"/>
      <ellipse cx="166.545" cy="411.24" rx="166.045" ry="410.74" fill="none"/>
    </g>
    <g id="Ellipse_186" data-name="Ellipse 186" transform="translate(418.402 1346)" fill="none" stroke="#fff" stroke-width="1">
      <ellipse cx="166.545" cy="411.24" rx="166.545" ry="411.24" stroke="none"/>
      <ellipse cx="166.545" cy="411.24" rx="166.045" ry="410.74" fill="none"/>
    </g>
    <g id="Ellipse_187" data-name="Ellipse 187" transform="translate(445.483 1346)" fill="none" stroke="#fff" stroke-width="1">
      <ellipse cx="166.545" cy="411.24" rx="166.545" ry="411.24" stroke="none"/>
      <ellipse cx="166.545" cy="411.24" rx="166.045" ry="410.74" fill="none"/>
    </g>
    <g id="Ellipse_188" data-name="Ellipse 188" transform="translate(472.563 1346)" fill="none" stroke="#fff" stroke-width="1">
      <ellipse cx="166.545" cy="411.24" rx="166.545" ry="411.24" stroke="none"/>
      <ellipse cx="166.545" cy="411.24" rx="166.045" ry="410.74" fill="none"/>
    </g>
    <g id="Ellipse_189" data-name="Ellipse 189" transform="translate(499.643 1346)" fill="none" stroke="#fff" stroke-width="1">
      <ellipse cx="166.545" cy="411.24" rx="166.545" ry="411.24" stroke="none"/>
      <ellipse cx="166.545" cy="411.24" rx="166.045" ry="410.74" fill="none"/>
    </g>
    <g id="Ellipse_190" data-name="Ellipse 190" transform="translate(526.724 1346)" fill="none" stroke="#fff" stroke-width="1">
      <ellipse cx="166.545" cy="411.24" rx="166.545" ry="411.24" stroke="none"/>
      <ellipse cx="166.545" cy="411.24" rx="166.045" ry="410.74" fill="none"/>
    </g>
    <g id="Ellipse_191" data-name="Ellipse 191" transform="translate(553.804 1346)" fill="none" stroke="#fff" stroke-width="1">
      <ellipse cx="166.545" cy="411.24" rx="166.545" ry="411.24" stroke="none"/>
      <ellipse cx="166.545" cy="411.24" rx="166.045" ry="410.74" fill="none"/>
    </g>
    <g id="Ellipse_192" data-name="Ellipse 192" transform="translate(580.885 1346)" fill="none" stroke="#fff" stroke-width="1">
      <ellipse cx="166.545" cy="411.24" rx="166.545" ry="411.24" stroke="none"/>
      <ellipse cx="166.545" cy="411.24" rx="166.045" ry="410.74" fill="none"/>
    </g>
    <g id="Ellipse_193" data-name="Ellipse 193" transform="translate(607.965 1346)" fill="none" stroke="#fff" stroke-width="1">
      <ellipse cx="166.545" cy="411.24" rx="166.545" ry="411.24" stroke="none"/>
      <ellipse cx="166.545" cy="411.24" rx="166.045" ry="410.74" fill="none"/>
    </g>
    <g id="Ellipse_194" data-name="Ellipse 194" transform="translate(635.045 1346)" fill="none" stroke="#fff" stroke-width="1">
      <ellipse cx="166.545" cy="411.24" rx="166.545" ry="411.24" stroke="none"/>
      <ellipse cx="166.545" cy="411.24" rx="166.045" ry="410.74" fill="none"/>
    </g>
    <g id="Ellipse_195" data-name="Ellipse 195" transform="translate(662.126 1346)" fill="none" stroke="#fff" stroke-width="1">
      <ellipse cx="166.545" cy="411.24" rx="166.545" ry="411.24" stroke="none"/>
      <ellipse cx="166.545" cy="411.24" rx="166.045" ry="410.74" fill="none"/>
    </g>
    <g id="Ellipse_196" data-name="Ellipse 196" transform="translate(689.206 1346)" fill="none" stroke="#fff" stroke-width="1">
      <ellipse cx="166.545" cy="411.24" rx="166.545" ry="411.24" stroke="none"/>
      <ellipse cx="166.545" cy="411.24" rx="166.045" ry="410.74" fill="none"/>
    </g>
    <g id="Ellipse_197" data-name="Ellipse 197" transform="translate(716.287 1346)" fill="none" stroke="#fff" stroke-width="1">
      <ellipse cx="166.545" cy="411.24" rx="166.545" ry="411.24" stroke="none"/>
      <ellipse cx="166.545" cy="411.24" rx="166.045" ry="410.74" fill="none"/>
    </g>
    <g id="Ellipse_198" data-name="Ellipse 198" transform="translate(743.367 1346)" fill="none" stroke="#fff" stroke-width="1">
      <ellipse cx="166.545" cy="411.24" rx="166.545" ry="411.24" stroke="none"/>
      <ellipse cx="166.545" cy="411.24" rx="166.045" ry="410.74" fill="none"/>
    </g>
    <g id="Ellipse_199" data-name="Ellipse 199" transform="translate(770.448 1346)" fill="none" stroke="#fff" stroke-width="1">
      <ellipse cx="166.545" cy="411.24" rx="166.545" ry="411.24" stroke="none"/>
      <ellipse cx="166.545" cy="411.24" rx="166.045" ry="410.74" fill="none"/>
    </g>
    <g id="Ellipse_200" data-name="Ellipse 200" transform="translate(797.528 1346)" fill="none" stroke="#fff" stroke-width="1">
      <ellipse cx="166.545" cy="411.24" rx="166.545" ry="411.24" stroke="none"/>
      <ellipse cx="166.545" cy="411.24" rx="166.045" ry="410.74" fill="none"/>
    </g>
    <g id="Ellipse_201" data-name="Ellipse 201" transform="translate(824.608 1346)" fill="none" stroke="#fff" stroke-width="1">
      <ellipse cx="166.545" cy="411.24" rx="166.545" ry="411.24" stroke="none"/>
      <ellipse cx="166.545" cy="411.24" rx="166.045" ry="410.74" fill="none"/>
    </g>
    <g id="Ellipse_202" data-name="Ellipse 202" transform="translate(851.689 1346)" fill="none" stroke="#fff" stroke-width="1">
      <ellipse cx="166.545" cy="411.24" rx="166.545" ry="411.24" stroke="none"/>
      <ellipse cx="166.545" cy="411.24" rx="166.045" ry="410.74" fill="none"/>
    </g>
    <g id="Ellipse_203" data-name="Ellipse 203" transform="translate(878.769 1346)" fill="none" stroke="#fff" stroke-width="1">
      <ellipse cx="166.545" cy="411.24" rx="166.545" ry="411.24" stroke="none"/>
      <ellipse cx="166.545" cy="411.24" rx="166.045" ry="410.74" fill="none"/>
    </g>
    <g id="Ellipse_204" data-name="Ellipse 204" transform="translate(905.85 1346)" fill="none" stroke="#fff" stroke-width="1">
      <ellipse cx="166.545" cy="411.24" rx="166.545" ry="411.24" stroke="none"/>
      <ellipse cx="166.545" cy="411.24" rx="166.045" ry="410.74" fill="none"/>
    </g>
    <g id="Ellipse_205" data-name="Ellipse 205" transform="translate(932.93 1346)" fill="none" stroke="#fff" stroke-width="1">
      <ellipse cx="166.545" cy="411.24" rx="166.545" ry="411.24" stroke="none"/>
      <ellipse cx="166.545" cy="411.24" rx="166.045" ry="410.74" fill="none"/>
    </g>
    <g id="Ellipse_206" data-name="Ellipse 206" transform="translate(960.011 1346)" fill="none" stroke="#fff" stroke-width="1">
      <ellipse cx="166.545" cy="411.24" rx="166.545" ry="411.24" stroke="none"/>
      <ellipse cx="166.545" cy="411.24" rx="166.045" ry="410.74" fill="none"/>
    </g>
    <g id="Ellipse_207" data-name="Ellipse 207" transform="translate(987.091 1346)" fill="none" stroke="#fff" stroke-width="1">
      <ellipse cx="166.545" cy="411.24" rx="166.545" ry="411.24" stroke="none"/>
      <ellipse cx="166.545" cy="411.24" rx="166.045" ry="410.74" fill="none"/>
    </g>
    <g id="Ellipse_208" data-name="Ellipse 208" transform="translate(1014.171 1346)" fill="none" stroke="#fff" stroke-width="1">
      <ellipse cx="166.545" cy="411.24" rx="166.545" ry="411.24" stroke="none"/>
      <ellipse cx="166.545" cy="411.24" rx="166.045" ry="410.74" fill="none"/>
    </g>
    <g id="Ellipse_209" data-name="Ellipse 209" transform="translate(1041.252 1346)" fill="none" stroke="#fff" stroke-width="1">
      <ellipse cx="166.545" cy="411.24" rx="166.545" ry="411.24" stroke="none"/>
      <ellipse cx="166.545" cy="411.24" rx="166.045" ry="410.74" fill="none"/>
    </g>
    <g id="Ellipse_210" data-name="Ellipse 210" transform="translate(1068.332 1346)" fill="none" stroke="#fff" stroke-width="1">
      <ellipse cx="166.545" cy="411.24" rx="166.545" ry="411.24" stroke="none"/>
      <ellipse cx="166.545" cy="411.24" rx="166.045" ry="410.74" fill="none"/>
    </g>
    <g id="Ellipse_211" data-name="Ellipse 211" transform="translate(1095.413 1346)" fill="none" stroke="#fff" stroke-width="1">
      <ellipse cx="166.545" cy="411.24" rx="166.545" ry="411.24" stroke="none"/>
      <ellipse cx="166.545" cy="411.24" rx="166.045" ry="410.74" fill="none"/>
    </g>
    <g id="Ellipse_212" data-name="Ellipse 212" transform="translate(1122.493 1346)" fill="none" stroke="#fff" stroke-width="1">
      <ellipse cx="166.545" cy="411.24" rx="166.545" ry="411.24" stroke="none"/>
      <ellipse cx="166.545" cy="411.24" rx="166.045" ry="410.74" fill="none"/>
    </g>
    <g id="Ellipse_213" data-name="Ellipse 213" transform="translate(1149.574 1346)" fill="none" stroke="#fff" stroke-width="1">
      <ellipse cx="166.545" cy="411.24" rx="166.545" ry="411.24" stroke="none"/>
      <ellipse cx="166.545" cy="411.24" rx="166.045" ry="410.74" fill="none"/>
    </g>
    <g id="Ellipse_214" data-name="Ellipse 214" transform="translate(1176.654 1346)" fill="none" stroke="#fff" stroke-width="1">
      <ellipse cx="166.545" cy="411.24" rx="166.545" ry="411.24" stroke="none"/>
      <ellipse cx="166.545" cy="411.24" rx="166.045" ry="410.74" fill="none"/>
    </g>
    <g id="Ellipse_215" data-name="Ellipse 215" transform="translate(1203.734 1346)" fill="none" stroke="#fff" stroke-width="1">
      <ellipse cx="166.545" cy="411.24" rx="166.545" ry="411.24" stroke="none"/>
      <ellipse cx="166.545" cy="411.24" rx="166.045" ry="410.74" fill="none"/>
    </g>
    <g id="Ellipse_216" data-name="Ellipse 216" transform="translate(1230.815 1346)" fill="none" stroke="#fff" stroke-width="1">
      <ellipse cx="166.545" cy="411.24" rx="166.545" ry="411.24" stroke="none"/>
      <ellipse cx="166.545" cy="411.24" rx="166.045" ry="410.74" fill="none"/>
    </g>
  </g>
</svg>
