<svg height="454pt" viewBox="-50 0 454 454.001" width="454pt" xmlns="http://www.w3.org/2000/svg"><path d="m206.71875.109375c113.609375 4.089844 183.132812 126.871094 130.5 227.632813 0 0-17.949219 44.359374-19.699219 63.097656-5.917969 63.570312 20.628907 163.160156 20.628907 163.160156h-156.296876l-18.652343-74.128906s-63.769531.230468-67.890625.359375c-10.074219.296875-19.839844-3.5-27.070313-10.523438-7.230469-7.023437-11.308593-16.675781-11.308593-26.757812v-55.066407h-49.46875c-2.457032-.003906-4.75-1.210937-6.144532-3.230468-1.3906248-2.023438-1.699218-4.597656-.828125-6.890625l32.203125-84.339844s.070313-31.789063.257813-34.851563c4.925781-89.691406 79.621093-159.589843 169.441406-158.5585932 1.449219.0195312 2.890625.0507812 4.328125.0976562zm6.832031 182.261719c12.609375-14.230469 23-24.449219 23-44.671875 0-26.507813-21.492187-48-48-48-26.511719 0-48 21.492187-48 48 0 20.222656 10.390625 30.441406 23 44.671875 12 13.539062 7 24.589844 7 24.589844h36s-5-11.050782 7-24.589844zm0 0" fill="#e48e66"/><g fill="#f8ec7d"><path d="m236.550781 137.699219c0 20.222656-10.390625 30.441406-23 44.671875-12 13.539062-7 24.589844-7 24.589844h-36s5-11.050782-7-24.589844c-12.609375-14.230469-23-24.449219-23-44.671875 0-26.507813 21.488281-48 48-48 26.507813 0 48 21.492187 48 48zm0 0"/><path d="m188.550781 74.429688c-3.867187 0-7-3.132813-7-7v-34.117188c0-3.867188 3.132813-7 7-7 3.863281 0 7 3.132812 7 7v34.117188c0 3.867187-3.136719 7-7 7zm0 0"/><path d="m149.257812 84.730469c-2.507812.003906-4.824218-1.335938-6.074218-3.507813l-13.191406-22.933594c-1.277344-2.167968-1.292969-4.855468-.039063-7.039062 1.257813-2.183594 3.585937-3.523438 6.105469-3.511719 2.519531.011719 4.835937 1.375 6.066406 3.574219l13.191406 22.929688c1.246094 2.164062 1.246094 4.828124-.003906 6.992187s-3.558594 3.496094-6.054688 3.496094zm0 0"/><path d="m120.164062 114.683594c-1.230468-.003906-2.4375-.328125-3.5-.949219l-22.84375-13.234375c-2.195312-1.238281-3.558593-3.558594-3.5625-6.082031-.007812-2.519531 1.34375-4.851563 3.535157-6.097657 2.191406-1.25 4.882812-1.222656 7.046875.070313l22.839844 13.238281c2.742187 1.589844 4.074218 4.820313 3.25 7.878906-.824219 3.058594-3.597657 5.183594-6.765626 5.179688zm0 0"/><path d="m231.832031 84.730469c-2.496093 0-4.804687-1.332031-6.054687-3.496094-1.25-2.160156-1.25-4.828125-.007813-6.992187l13.179688-22.929688c1.925781-3.351562 6.207031-4.507812 9.558593-2.582031 3.351563 1.925781 4.507813 6.207031 2.582032 9.558593l-13.179688 22.929688c-1.25 2.175781-3.570312 3.515625-6.078125 3.511719zm0 0"/><path d="m261.308594 114.683594c-3.167969.003906-5.945313-2.121094-6.769532-5.179688-.824218-3.058594.507813-6.289062 3.25-7.878906l22.839844-13.238281c3.34375-1.941407 7.628906-.800781 9.566406 2.546875 1.941407 3.34375.800782 7.628906-2.546874 9.566406l-22.839844 13.238281c-1.0625.621094-2.269532.945313-3.5.945313zm0 0"/><path d="m295.550781 156.742188h-34c-3.867187 0-7-3.136719-7-7 0-3.867188 3.132813-7 7-7h34c3.863281 0 7 3.132812 7 7 0 3.863281-3.136719 7-7 7zm0 0"/><path d="m116.550781 156.742188h-34c-3.867187 0-7-3.136719-7-7 0-3.867188 3.132813-7 7-7h34c3.863281 0 7 3.132812 7 7 0 3.863281-3.136719 7-7 7zm0 0"/></g><path d="m205.550781 230.019531h-34c-3.867187 0-7-3.132812-7-7 0-3.863281 3.132813-7 7-7h34c3.863281 0 7 3.136719 7 7 0 3.867188-3.136719 7-7 7zm0 0" fill="#6fe3ff"/><path d="m199.550781 246.082031h-23c-3.867187 0-7-3.136719-7-7 0-3.867187 3.132813-7 7-7h23c3.863281 0 7 3.132813 7 7 0 3.863281-3.136719 7-7 7zm0 0" fill="#6fe3ff"/></svg>