<svg height="512pt" viewBox="-12 0 512 512" width="512pt" xmlns="http://www.w3.org/2000/svg"><path d="m453.527344 243.550781 31.84375-47.324219c8.085937-12.011718 2.753906-28.421874-10.847656-33.386718l-53.5625-19.566406c-8.515626-3.109376-14.300782-11.066407-14.628907-20.128907l-2.078125-57.023437c-.527344-14.457032-14.46875-24.589844-28.382812-20.632813l-54.878906 15.613281c-8.710938 2.476563-18.050782-.558593-23.640626-7.679687l-35.222656-44.890625c-8.925781-11.375-26.152344-11.375-35.078125 0l-35.222656 44.890625c-5.589844 7.125-14.933594 10.160156-23.640625 7.683594l-54.878906-15.617188c-13.914063-3.957031-27.851563 6.175781-28.378906 20.632813l-2.078126 57.023437c-.332031 9.058594-6.117187 17.019531-14.632812 20.128907l-53.5625 19.566406c-13.601562 4.964844-18.933594 21.375-10.847656 33.386718l31.847656 47.324219c5.0625 7.527344 5.0625 17.371094 0 24.898438l-31.847656 47.320312c-8.085938 12.015625-2.753906 28.425781 10.847656 33.390625l53.5625 19.566406c8.515625 3.109376 14.300781 11.066407 14.632812 20.128907l2.078126 57.023437c.523437 14.457032 14.464843 24.589844 28.378906 20.632813l54.878906-15.617188c8.710938-2.476562 18.054688.558594 23.644531 7.683594l35.21875 44.890625c8.925781 11.375 26.152344 11.375 35.082031 0l35.21875-44.890625c5.589844-7.125 14.933594-10.160156 23.640626-7.683594l54.878906 15.617188c13.914062 3.957031 27.855468-6.175781 28.382812-20.632813l2.078125-57.023437c.332031-9.0625 6.117188-17.019531 14.632813-20.128907l53.5625-19.566406c13.601562-4.964844 18.929687-21.375 10.847656-33.390625l-31.847656-47.324219c-5.066406-7.523437-5.066406-17.367187 0-24.894531zm0 0" fill="#ffcc71"/><path d="m394.777344 255.996094c0 73.855468-53.300782 135.253906-123.539063 147.824218-8.640625 1.554688-17.554687 2.359376-26.644531 2.359376-82.945312 0-150.183594-67.238282-150.183594-150.183594 0-82.941406 67.238282-150.179688 150.183594-150.179688 9.089844 0 18.003906.804688 26.644531 2.359375 70.238281 12.570313 123.539063 73.96875 123.539063 147.820313zm0 0" fill="#e8a328"/><path d="m394.777344 255.996094c0 73.855468-53.300782 135.253906-123.539063 147.824218-70.238281-12.570312-123.546875-73.96875-123.546875-147.824218 0-73.851563 53.308594-135.25 123.546875-147.820313 70.238281 12.570313 123.539063 73.96875 123.539063 147.820313zm0 0" fill="#ffbf3e"/><path d="m202.582031 251.046875c-4.328125 0-7.835937-3.507813-7.835937-7.835937v-29.933594c0-4.328125 3.507812-7.835938 7.835937-7.835938s7.835938 3.507813 7.835938 7.835938v29.933594c0 4.328124-3.507813 7.835937-7.835938 7.835937zm0 0" fill="#5b5b68"/><path d="m286.601562 251.046875c-4.332031 0-7.839843-3.507813-7.839843-7.835937v-29.933594c0-4.328125 3.507812-7.835938 7.839843-7.835938 4.328126 0 7.835938 3.507813 7.835938 7.835938v29.933594c0 4.328124-3.507812 7.835937-7.835938 7.835937zm0 0" fill="#5b5b68"/><path d="m244.589844 326.8125c-16.472656 0-32.136719-6.507812-45.300782-18.816406-3.164062-2.953125-3.332031-7.914063-.375-11.074219 2.957032-3.164063 7.914063-3.332031 11.078126-.375 20.695312 19.34375 48.503906 19.347656 69.203124 0 3.160157-2.957031 8.121094-2.785156 11.074219.375 2.957031 3.160156 2.789063 8.121094-.371093 11.074219-13.171876 12.308594-28.835938 18.816406-45.308594 18.816406zm0 0" fill="#f94141"/></svg>